<svg width="24" height="24" viewBox="0 0 24 24" fill="none" xmlns="http://www.w3.org/2000/svg">
<g clip-path="url(#clip0_48_3801)">
<path d="M23.1892 4.72691L15.9176 12.0003L23.1892 19.2725C24.2703 20.3541 24.2703 22.1087 23.1892 23.1903C22.6487 23.7305 21.9395 24 21.2316 24C20.5224 24 19.8132 23.7305 19.2727 23.1903L11.9998 15.9169L4.72822 23.1903C4.18771 23.7305 3.47852 24 2.76934 24C2.06138 24 1.35343 23.7305 0.811688 23.1903C-0.26933 22.1087 -0.26933 20.3553 0.811688 19.2725L8.08331 12.0003L0.811688 4.72691C-0.270561 3.64531 -0.270561 1.89187 0.811688 0.810275C1.89394 -0.270091 3.64597 -0.270091 4.72822 0.810275L11.9998 8.08368L19.2715 0.810275C20.3537 -0.270091 22.107 -0.270091 23.188 0.810275C24.2703 1.89187 24.2703 3.64531 23.1892 4.72691Z" fill="#999999"/>
</g>
<defs>
<clipPath id="clip0_48_3801">
<rect width="24" height="24" fill="white"/>
</clipPath>
</defs>
</svg>
