<svg width="20" height="22" viewBox="0 0 20 22" fill="none" xmlns="http://www.w3.org/2000/svg">
<path d="M10.5932 21.2581L10.5822 21.2601L10.5112 21.2951L10.4912 21.2991L10.4772 21.2951L10.4062 21.2601C10.3962 21.2561 10.3872 21.2591 10.3822 21.2651L10.3782 21.2751L10.3612 21.7031L10.3662 21.7231L10.3762 21.7361L10.4802 21.8101L10.4952 21.8141L10.5072 21.8101L10.6112 21.7361L10.6232 21.7201L10.6272 21.7031L10.6102 21.2761C10.6082 21.2661 10.6012 21.2591 10.5932 21.2581ZM10.8582 21.1451L10.8452 21.1471L10.6602 21.2401L10.6502 21.2501L10.6472 21.2611L10.6652 21.6911L10.6702 21.7031L10.6782 21.7101L10.8792 21.8031C10.8912 21.8071 10.9022 21.8031 10.9082 21.7951L10.9122 21.7811L10.8782 21.1671C10.8752 21.1551 10.8682 21.1471 10.8582 21.1451ZM10.1432 21.1471C10.1386 21.145 10.1335 21.1445 10.1287 21.1456C10.1238 21.1466 10.1194 21.1493 10.1162 21.1531L10.1102 21.1671L10.0762 21.7811C10.0762 21.7931 10.0832 21.8011 10.0932 21.8051L10.1082 21.8031L10.3092 21.7101L10.3192 21.7021L10.3232 21.6911L10.3402 21.2611L10.3372 21.2491L10.3272 21.2391L10.1432 21.1471Z" fill="white"/>
<path d="M10 0C15.523 0 20 4.477 20 10C20 15.523 15.523 20 10 20C4.477 20 0 15.523 0 10C0 4.477 4.477 0 10 0ZM10 2C7.87827 2 5.84344 2.84285 4.34315 4.34315C2.84285 5.84344 2 7.87827 2 10C2 12.1217 2.84285 14.1566 4.34315 15.6569C5.84344 17.1571 7.87827 18 10 18C12.1217 18 14.1566 17.1571 15.6569 15.6569C17.1571 14.1566 18 12.1217 18 10C18 7.87827 17.1571 5.84344 15.6569 4.34315C14.1566 2.84285 12.1217 2 10 2ZM10 5C10.7094 4.99926 11.4108 5.14979 12.0575 5.44155C12.7041 5.73332 13.2811 6.15961 13.75 6.692C13.9256 6.89091 14.0149 7.15142 13.9984 7.41623C13.9819 7.68103 13.8609 7.92843 13.662 8.104C13.4631 8.27957 13.2026 8.36894 12.9378 8.35244C12.673 8.33593 12.4256 8.21491 12.25 8.016C11.847 7.55889 11.3143 7.23536 10.7229 7.08846C10.1315 6.94157 9.50931 6.97827 8.93926 7.19368C8.3692 7.4091 7.87827 7.79301 7.53179 8.29433C7.18531 8.79565 6.99972 9.3906 6.99972 10C6.99972 10.6094 7.18531 11.2043 7.53179 11.7057C7.87827 12.207 8.3692 12.5909 8.93926 12.8063C9.50931 13.0217 10.1315 13.0584 10.7229 12.9115C11.3143 12.7646 11.847 12.4411 12.25 11.984C12.4256 11.7851 12.673 11.6641 12.9378 11.6476C13.2026 11.6311 13.4631 11.7204 13.662 11.896C13.8609 12.0716 13.9819 12.319 13.9984 12.5838C14.0149 12.8486 13.9256 13.1091 13.75 13.308C13.1973 13.9345 12.4964 14.4124 11.7114 14.6983C10.9264 14.9841 10.0822 15.0687 9.25611 14.9442C8.42999 14.8198 7.64821 14.4904 6.98219 13.986C6.31618 13.4817 5.78715 12.8185 5.44345 12.057C5.09975 11.2956 4.95233 10.4601 5.01465 9.62701C5.07697 8.7939 5.34705 7.98969 5.80022 7.28784C6.25338 6.58599 6.87519 6.00888 7.60883 5.60923C8.34248 5.20957 9.16456 5.00012 10 5Z" fill="white"/>
</svg>
