<svg width="27" height="26" viewBox="0 0 27 26" fill="none" xmlns="http://www.w3.org/2000/svg">
<path d="M25.9422 15.487L25.915 15.4655L24.0834 14.0666C23.9674 13.9772 23.8748 13.8623 23.8133 13.7313C23.7517 13.6004 23.723 13.457 23.7293 13.3131V12.6597C23.7235 12.5167 23.7526 12.3745 23.8143 12.2446C23.8759 12.1147 23.9683 12.0009 24.0839 11.9125L25.915 10.513L25.9422 10.4916C26.2246 10.2625 26.4141 9.943 26.4769 9.59031C26.5396 9.23762 26.4715 8.87469 26.2846 8.56643L23.8059 4.38948C23.8031 4.38554 23.8006 4.38138 23.7984 4.37704C23.6106 4.07305 23.3194 3.84272 22.9754 3.72604C22.6313 3.60937 22.2562 3.61372 21.9151 3.73835L21.8948 3.7457L19.7417 4.58957C19.6058 4.64308 19.4588 4.66437 19.3128 4.6517C19.1668 4.63902 19.026 4.59273 18.9019 4.51665C18.7116 4.39984 18.5181 4.28943 18.3216 4.18543C18.1942 4.11813 18.0847 4.02261 18.0022 3.90656C17.9196 3.79051 17.8662 3.65719 17.8463 3.51735L17.5219 1.27965L17.5149 1.23896C17.4443 0.892364 17.2533 0.58001 16.9741 0.354388C16.6948 0.128765 16.3444 0.00362592 15.9816 0H11.0184C10.6505 0.00114656 10.2948 0.128709 10.014 0.360215C9.73317 0.591721 9.54526 0.912317 9.48335 1.26552L9.47813 1.29717L9.15487 3.53939C9.13504 3.67883 9.08206 3.81184 9.00015 3.92782C8.91824 4.04381 8.80965 4.13957 8.68304 4.20748C8.48592 4.31087 8.29236 4.42058 8.10269 4.53644C7.97887 4.61205 7.83841 4.65799 7.69283 4.67046C7.54725 4.68294 7.4007 4.66161 7.26523 4.60822L5.11037 3.76039L5.09006 3.75248C4.7485 3.62772 4.37284 3.62353 4.02843 3.74064C3.68402 3.85775 3.39267 4.08874 3.20507 4.39344L3.19752 4.40587L0.71534 8.58565C0.528251 8.89423 0.459966 9.25755 0.522697 9.61066C0.585429 9.96377 0.775084 10.2836 1.05775 10.513L1.08503 10.5345L2.91663 11.9334C3.03262 12.0228 3.12519 12.1377 3.18673 12.2687C3.24827 12.3996 3.27703 12.543 3.27065 12.6869V13.3403C3.27646 13.4832 3.24735 13.6255 3.1857 13.7554C3.12406 13.8853 3.03164 13.9991 2.91605 14.0875L1.08503 15.487L1.05775 15.5084C0.775364 15.7375 0.585863 16.057 0.523132 16.4097C0.460401 16.7624 0.528531 17.1253 0.71534 17.4336L3.19404 21.6105C3.19689 21.6145 3.19941 21.6186 3.20158 21.623C3.3894 21.927 3.6806 22.1573 4.02463 22.274C4.36865 22.3906 4.74377 22.3863 5.08484 22.2617L5.10515 22.2543L7.25653 21.4104C7.39243 21.3569 7.53943 21.3356 7.68544 21.3483C7.83145 21.361 7.97227 21.4073 8.0963 21.4833C8.28666 21.6005 8.48011 21.7109 8.67666 21.8146C8.80409 21.8819 8.9135 21.9774 8.99607 22.0934C9.07863 22.2095 9.13203 22.3428 9.15197 22.4827L9.47465 24.7203L9.48161 24.761C9.55236 25.1082 9.74384 25.421 10.0238 25.6467C10.3037 25.8724 10.655 25.9972 11.0184 26H15.9816C16.3495 25.9989 16.7052 25.8713 16.986 25.6398C17.2668 25.4083 17.4547 25.0877 17.5166 24.7345L17.5219 24.7028L17.8451 22.4606C17.8653 22.3209 17.9187 22.1877 18.0011 22.0717C18.0835 21.9557 18.1927 21.8601 18.3198 21.7925C18.5183 21.6885 18.7122 21.5783 18.9002 21.4636C19.024 21.3879 19.1645 21.342 19.3101 21.3295C19.4556 21.3171 19.6022 21.3384 19.7377 21.3918L21.8925 22.2368L21.9128 22.2447C22.2544 22.3697 22.6301 22.374 22.9746 22.2569C23.319 22.1397 23.6104 21.9086 23.7978 21.6037C23.8002 21.5995 23.8027 21.5953 23.8054 21.5913L26.2841 17.4149C26.4715 17.1064 26.54 16.7429 26.4774 16.3897C26.4148 16.0364 26.2251 15.7164 25.9422 15.487ZM18.1376 13.2125C18.0954 14.0878 17.7929 14.9323 17.267 15.6432C16.741 16.3542 16.0143 16.901 15.1752 17.2172C14.3361 17.5334 13.4208 17.6053 12.5405 17.4243C11.6602 17.2432 10.8529 16.8169 10.2167 16.1973C9.58055 15.5776 9.14296 14.7913 8.95714 13.934C8.77133 13.0766 8.8453 12.1851 9.17006 11.368C9.49482 10.5508 10.0564 9.84312 10.7864 9.33101C11.5165 8.81889 12.3836 8.5244 13.2824 8.48335C13.9276 8.45568 14.5716 8.55908 15.1736 8.78696C15.7756 9.01484 16.3223 9.36222 16.7789 9.80702C17.2356 10.2518 17.5922 10.7843 17.8261 11.3706C18.06 11.9569 18.1661 12.5841 18.1376 13.2125Z" fill="#0053AF"/>
</svg>
