<svg width="27" height="26" viewBox="0 0 27 26" fill="none" xmlns="http://www.w3.org/2000/svg">
<path fill-rule="evenodd" clip-rule="evenodd" d="M12.7341 3.56743C12.9372 3.36434 13.2127 3.25024 13.5 3.25024C13.7873 3.25024 14.0628 3.36434 14.2659 3.56743L20.7659 10.0674L22.9326 12.2341C23.1299 12.4384 23.2391 12.7121 23.2366 12.9961C23.2342 13.2802 23.1202 13.5519 22.9194 13.7527C22.7185 13.9536 22.4468 14.0675 22.1628 14.07C21.8787 14.0725 21.6051 13.9633 21.4007 13.7659L21.0833 13.4485V20.5833C21.0833 21.158 20.8551 21.7091 20.4487 22.1154C20.0424 22.5217 19.4913 22.75 18.9167 22.75H15.6667C15.3793 22.75 15.1038 22.6359 14.9006 22.4327C14.6975 22.2295 14.5833 21.954 14.5833 21.6667V18.4167H12.4167V21.6667C12.4167 21.954 12.3025 22.2295 12.0994 22.4327C11.8962 22.6359 11.6206 22.75 11.3333 22.75H8.08333C7.50869 22.75 6.95759 22.5217 6.55126 22.1154C6.14493 21.7091 5.91666 21.158 5.91666 20.5833V13.4485L5.59924 13.7659C5.39492 13.9633 5.12127 14.0725 4.83723 14.07C4.55318 14.0675 4.28147 13.9536 4.08061 13.7527C3.87975 13.5519 3.76581 13.2802 3.76335 12.9961C3.76088 12.7121 3.87007 12.4384 4.06741 12.2341L6.23408 10.0674L12.7341 3.56743Z" fill="white"/>
</svg>
