<svg width="26" height="26" viewBox="0 0 26 26" fill="none" xmlns="http://www.w3.org/2000/svg">
<g clip-path="url(#clip0_37_187)">
<path d="M5.46 8.32C2.45934 8.32 0 10.7718 0 13.7644C0 14.924 0.37024 16.0017 0.9971 16.8875L4.79388 23.451C5.32558 24.1457 5.67918 24.0139 6.12144 23.4146L10.309 16.288C10.3935 16.1346 10.4598 15.9718 10.5178 15.8054C10.7835 15.1578 10.9201 14.4644 10.92 13.7644C10.92 10.7718 8.46144 8.32 5.46 8.32ZM5.46 10.8711C7.07616 10.8711 8.3616 12.1532 8.3616 13.7647C8.3616 15.3761 7.07616 16.6577 5.46 16.6577C3.8441 16.6577 2.5584 15.3759 2.5584 13.7647C2.5584 12.1532 3.8441 10.8711 5.46 10.8711ZM22.815 0C21.0647 0 19.63 1.43026 19.63 3.17616C19.63 3.85242 19.8458 4.4811 20.2116 4.99772L22.4266 8.82648C22.7367 9.23156 22.9429 9.1546 23.2008 8.80516L25.6435 4.64776C25.6929 4.55858 25.7317 4.46368 25.7652 4.36644C25.9203 3.98877 26 3.58443 26 3.17616C26 1.43 24.5658 0 22.815 0ZM22.815 1.48824C23.7578 1.48824 24.5076 2.236 24.5076 3.17616C24.5076 4.11606 23.7578 4.86356 22.815 4.86356C21.8725 4.86356 21.1224 4.11606 21.1224 3.17616C21.1224 2.236 21.8725 1.48824 22.815 1.48824Z" fill="white"/>
<path fill-rule="evenodd" clip-rule="evenodd" d="M22.9344 9.72711C22.3502 9.74011 21.7644 9.76481 21.1776 9.80823L21.2681 11.2466C21.8318 11.2057 22.3964 11.1795 22.9615 11.1678L22.9344 9.72711ZM19.8209 9.94031C18.9187 10.0524 18.0087 10.212 17.1091 10.4686L17.4479 11.8625C18.2653 11.6295 19.1124 11.479 19.9728 11.3721L19.8209 9.94031ZM15.7621 10.9512C15.4925 11.0702 15.2315 11.2077 14.981 11.3628L14.98 11.3641L14.9784 11.3646C14.6209 11.5898 14.2442 11.8755 13.9366 12.2907C13.7138 12.5915 13.5315 12.9719 13.4889 13.4217L14.8136 13.5686C14.8235 13.4631 14.8775 13.3237 14.9748 13.1927H14.9753V13.1921C15.1321 12.98 15.3671 12.7873 15.6466 12.611L15.6477 12.6105C15.8469 12.4876 16.0543 12.3784 16.2685 12.284L15.7621 10.9512ZM15.0801 14.2103L14.2213 15.3114C14.4249 15.4976 14.6383 15.6406 14.8445 15.7602L14.8471 15.7615L14.8497 15.763C15.534 16.1522 16.2397 16.3719 16.8938 16.5805L17.2698 15.1978C16.6159 14.9893 15.9994 14.788 15.4711 14.488C15.3198 14.4001 15.1872 14.3083 15.0801 14.2103ZM18.5472 15.5867L18.1801 16.9718L18.3537 17.0258L18.5669 17.094C19.2726 17.3235 19.9486 17.5687 20.5528 17.908L21.1659 16.6288C20.4353 16.2183 19.6769 15.95 18.946 15.7123L18.9439 15.7118L18.725 15.6419L18.5472 15.5867ZM22.4126 17.5887L21.4706 18.6079C21.6932 18.849 21.8598 19.1389 21.941 19.4384L21.9415 19.4399L21.942 19.4423C22.0387 19.792 22.039 20.2033 21.9633 20.6188L23.2696 20.8975C23.3762 20.3109 23.3933 19.6669 23.2181 19.0312C23.0655 18.4691 22.7743 17.9808 22.4126 17.5887ZM21.5073 21.4872C21.3633 21.6392 21.2043 21.7761 21.0325 21.8959H21.032C20.564 22.2251 20.0211 22.4731 19.4444 22.6863L19.8745 24.0497C20.5052 23.8165 21.1529 23.5305 21.7582 23.1046L21.7597 23.1033L21.7605 23.1028C22.0091 22.9288 22.239 22.7295 22.4467 22.5082L21.5073 21.4872ZM18.2209 23.0703C17.3855 23.295 16.5317 23.466 15.6674 23.6111L15.8713 25.0357C16.7607 24.8862 17.6538 24.7075 18.5415 24.4689L18.2209 23.0703ZM14.3672 23.8077C13.4972 23.9265 12.6226 24.0235 11.7453 24.1062L11.8602 25.5419C12.751 25.4582 13.6433 25.3596 14.5343 25.2377L14.3672 23.8077ZM10.4269 24.2193C9.54779 24.2889 8.66665 24.3456 7.78473 24.3935L7.85129 25.8328C8.74179 25.7847 9.63307 25.7273 10.5241 25.6565L10.4269 24.2193ZM6.45951 24.4585C5.93093 24.4832 5.40105 24.5034 4.86987 24.5222L4.91355 25.9628C5.44805 25.9444 5.98245 25.9231 6.51671 25.8989L6.45951 24.4585Z" fill="white"/>
</g>
<defs>
<clipPath id="clip0_37_187">
<rect width="26" height="26" fill="white"/>
</clipPath>
</defs>
</svg>
