<svg width="27" height="26" viewBox="0 0 27 26" fill="none" xmlns="http://www.w3.org/2000/svg">
<path fill-rule="evenodd" clip-rule="evenodd" d="M12.7342 3.56743C12.9374 3.36434 13.2129 3.25024 13.5001 3.25024C13.7874 3.25024 14.0629 3.36434 14.266 3.56743L20.766 10.0674L22.9327 12.2341C23.13 12.4384 23.2392 12.7121 23.2368 12.9961C23.2343 13.2802 23.1204 13.5519 22.9195 13.7527C22.7186 13.9536 22.4469 14.0675 22.1629 14.07C21.8788 14.0725 21.6052 13.9633 21.4009 13.7659L21.0834 13.4485V20.5833C21.0834 21.158 20.8552 21.7091 20.4488 22.1154C20.0425 22.5217 19.4914 22.75 18.9168 22.75H15.6668C15.3795 22.75 15.1039 22.6359 14.9007 22.4327C14.6976 22.2295 14.5834 21.954 14.5834 21.6667V18.4167H12.4168V21.6667C12.4168 21.954 12.3026 22.2295 12.0995 22.4327C11.8963 22.6359 11.6208 22.75 11.3334 22.75H8.08345C7.50881 22.75 6.95771 22.5217 6.55138 22.1154C6.14506 21.7091 5.91678 21.158 5.91678 20.5833V13.4485L5.59937 13.7659C5.39505 13.9633 5.12139 14.0725 4.83735 14.07C4.5533 14.0675 4.28159 13.9536 4.08073 13.7527C3.87987 13.5519 3.76594 13.2802 3.76347 12.9961C3.761 12.7121 3.87019 12.4384 4.06753 12.2341L6.2342 10.0674L12.7342 3.56743Z" fill="#0053AF"/>
</svg>
