<svg width="21" height="21" viewBox="0 0 21 21" fill="none" xmlns="http://www.w3.org/2000/svg">
<path d="M10.0506 2.5C6.73686 2.5 4.05057 5.18629 4.05057 8.5V12.0858L3.34346 12.7929C3.05746 13.0789 2.97191 13.509 3.12669 13.8827C3.28147 14.2564 3.6461 14.5 4.05057 14.5H16.0506C16.455 14.5 16.8197 14.2564 16.9744 13.8827C17.1292 13.509 17.0437 13.0789 16.7577 12.7929L16.0506 12.0858V8.5C16.0506 5.18629 13.3643 2.5 10.0506 2.5Z" fill="#0153AF"/>
<path d="M10.0505 18.5C8.39368 18.5 7.05054 17.1569 7.05054 15.5H13.0505C13.0505 17.1569 11.7074 18.5 10.0505 18.5Z" fill="#0153AF"/>
</svg>
