<svg width="24" height="25" viewBox="0 0 24 25" fill="none" xmlns="http://www.w3.org/2000/svg">
<path d="M15.5969 12.055C15.5969 13.9616 13.9836 15.5073 11.9935 15.5073C10.0034 15.5073 8.39012 13.9616 8.39012 12.055C8.39012 10.1484 10.0034 8.60278 11.9935 8.60278C13.9836 8.60276 15.5969 10.1484 15.5969 12.055ZM12 4.86694C9.9395 4.87608 7.80372 5.3777 5.78192 6.33808C4.28076 7.08052 2.8178 8.128 1.54788 9.4209C0.92416 10.0809 0.12862 11.0365 0 12.0561C0.0152 12.9394 0.9626 14.0295 1.54788 14.6914C2.73874 15.9335 4.1636 16.9518 5.78192 17.775C7.66734 18.69 9.75424 19.2168 12 19.2461C14.0625 19.2368 16.1978 18.7294 18.2173 17.775C19.7185 17.0325 21.1822 15.9843 22.4521 14.6914C23.0758 14.0314 23.8714 13.0758 24 12.0561C23.9848 11.1729 23.0374 10.0827 22.4521 9.42086C21.2613 8.17874 19.8356 7.16128 18.2173 6.33804C16.3329 5.42372 14.2408 4.90052 12 4.86694ZM11.9985 6.6519C15.1209 6.6519 17.652 9.07178 17.652 12.0569C17.652 15.042 15.1209 17.4619 11.9985 17.4619C8.8761 17.4619 6.34498 15.042 6.34498 12.0569C6.34498 9.07178 8.8761 6.6519 11.9985 6.6519Z" fill="#999999"/>
</svg>
