<svg width="24" height="24" viewBox="0 0 24 24" fill="none" xmlns="http://www.w3.org/2000/svg">
<path fill-rule="evenodd" clip-rule="evenodd" d="M0.013916 12C0.013916 8.95001 1.22552 6.02494 3.38219 3.86827C5.53886 1.7116 8.46393 0.5 11.5139 0.5C14.5639 0.5 17.489 1.7116 19.6456 3.86827C21.8023 6.02494 23.0139 8.95001 23.0139 12C23.0139 15.05 21.8023 17.9751 19.6456 20.1317C17.489 22.2884 14.5639 23.5 11.5139 23.5C8.46393 23.5 5.53886 22.2884 3.38219 20.1317C1.22552 17.9751 0.013916 15.05 0.013916 12ZM11.5139 2.14955C9.60463 2.14962 7.73651 2.70456 6.13682 3.74685C4.53713 4.78915 3.27483 6.27387 2.50348 8.02041C1.73212 9.76695 1.48496 11.7 1.79207 13.5844C2.09918 15.4689 2.94732 17.2234 4.2333 18.6347C5.01402 17.4118 6.09038 16.4055 7.36292 15.7087C8.63545 15.0119 10.0631 14.6471 11.5139 14.648C12.9648 14.6469 14.3925 15.0116 15.665 15.7085C16.9376 16.4053 18.0139 17.4117 18.7945 18.6347C20.0805 17.2234 20.9286 15.4689 21.2358 13.5844C21.5429 11.7 21.2957 9.76695 20.5244 8.02041C19.753 6.27387 18.4907 4.78915 16.891 3.74685C15.2913 2.70456 13.4232 2.14962 11.5139 2.14955ZM17.56 19.7772C16.9455 18.7182 16.0635 17.8393 15.0024 17.2286C13.9413 16.6179 12.7382 16.2968 11.5139 16.2975C10.2896 16.2968 9.08657 16.6179 8.02543 17.2286C6.9643 17.8393 6.08231 18.7182 5.46786 19.7772C7.19515 21.1241 9.32359 21.8539 11.5139 21.8504C13.792 21.8504 15.8896 21.076 17.56 19.7772ZM7.43344 10.2723C7.43344 9.1901 7.86335 8.15221 8.62858 7.38698C9.39382 6.62174 10.4317 6.19183 11.5139 6.19183C12.5961 6.19183 13.634 6.62174 14.3992 7.38698C15.1645 8.15221 15.5944 9.1901 15.5944 10.2723C15.5944 11.3545 15.1645 12.3924 14.3992 13.1576C13.634 13.9229 12.5961 14.3528 11.5139 14.3528C10.4317 14.3528 9.39382 13.9229 8.62858 13.1576C7.86335 12.3924 7.43344 11.3545 7.43344 10.2723ZM11.5139 7.84139C11.1947 7.84139 10.8786 7.90426 10.5836 8.02643C10.2887 8.14859 10.0207 8.32765 9.79499 8.55339C9.56926 8.77912 9.3902 9.0471 9.26804 9.34203C9.14587 9.63697 9.08299 9.95308 9.08299 10.2723C9.08299 10.5915 9.14587 10.9076 9.26804 11.2026C9.3902 11.4975 9.56926 11.7655 9.79499 11.9912C10.0207 12.217 10.2887 12.396 10.5836 12.5182C10.8786 12.6404 11.1947 12.7032 11.5139 12.7032C12.1586 12.7032 12.777 12.4471 13.2328 11.9912C13.6887 11.5353 13.9448 10.917 13.9448 10.2723C13.9448 9.62759 13.6887 9.00927 13.2328 8.55339C12.777 8.0975 12.1586 7.84139 11.5139 7.84139Z" fill="#0153AF"/>
</svg>
