<svg width="50" height="51" viewBox="0 0 50 51" fill="none" xmlns="http://www.w3.org/2000/svg">
<path d="M43.75 5.93771H36.25V2.18771C36.25 1.85619 36.1183 1.53825 35.8839 1.30383C35.6495 1.06941 35.3315 0.937714 35 0.937714C34.6685 0.937714 34.3505 1.06941 34.1161 1.30383C33.8817 1.53825 33.75 1.85619 33.75 2.18771V5.93771H16.25V2.18771C16.25 1.85619 16.1183 1.53825 15.8839 1.30383C15.6495 1.06941 15.3315 0.937714 15 0.937714C14.6685 0.937714 14.3505 1.06941 14.1161 1.30383C13.8817 1.53825 13.75 1.85619 13.75 2.18771V5.93771H6.25C4.59301 5.9397 3.00445 6.59882 1.83277 7.77049C0.661102 8.94216 0.00198482 10.5307 0 12.1877V44.6877C0.00198482 46.3447 0.661102 47.9333 1.83277 49.1049C3.00445 50.2766 4.59301 50.9357 6.25 50.9377H43.75C45.4072 50.9364 46.9961 50.2775 48.168 49.1057C49.3398 47.9339 49.9987 46.3449 50 44.6877V12.1877C49.9987 10.5305 49.3398 8.94157 48.168 7.76976C46.9961 6.59794 45.4072 5.93904 43.75 5.93771ZM47.5 44.6877C47.5 45.6823 47.1049 46.6361 46.4016 47.3394C45.6984 48.0426 44.7446 48.4377 43.75 48.4377H6.25C5.25544 48.4377 4.30161 48.0426 3.59835 47.3394C2.89509 46.6361 2.5 45.6823 2.5 44.6877V23.4377H47.5V44.6877ZM47.5 20.9377H2.5V12.1877C2.5 10.1177 4.175 8.43771 6.25 8.43771H13.75V12.1877C13.75 12.5192 13.8817 12.8372 14.1161 13.0716C14.3505 13.306 14.6685 13.4377 15 13.4377C15.3315 13.4377 15.6495 13.306 15.8839 13.0716C16.1183 12.8372 16.25 12.5192 16.25 12.1877V8.43771H33.75V12.1877C33.75 12.5192 33.8817 12.8372 34.1161 13.0716C34.3505 13.306 34.6685 13.4377 35 13.4377C35.3315 13.4377 35.6495 13.306 35.8839 13.0716C36.1183 12.8372 36.25 12.5192 36.25 12.1877V8.43771H43.75C44.7446 8.43771 45.6984 8.8328 46.4016 9.53606C47.1049 10.2393 47.5 11.1932 47.5 12.1877V20.9377Z" fill="black"/>
</svg>
