<svg width="217" height="210" viewBox="0 0 217 210" fill="none" xmlns="http://www.w3.org/2000/svg">
<path d="M215.487 190.94C201.776 166.877 180.368 148.128 154.707 137.71C167.468 128.139 176.894 114.796 181.65 99.5706C186.406 84.3451 186.251 68.0091 181.207 52.8766C176.163 37.7441 166.485 24.5823 153.545 15.2555C140.605 5.92875 125.058 0.909912 109.107 0.909912C93.1558 0.909912 77.6091 5.92875 64.6689 15.2555C51.7287 24.5823 42.0511 37.7441 37.007 52.8766C31.9628 68.0091 31.8078 84.3451 36.5639 99.5706C41.3199 114.796 50.746 128.139 63.5069 137.71C37.8461 148.128 16.4373 166.877 2.72689 190.94C1.87734 192.306 1.31112 193.829 1.06189 195.418C0.812659 197.007 0.885505 198.63 1.2761 200.191C1.66669 201.751 2.36706 203.218 3.33556 204.502C4.30407 205.786 5.52094 206.863 6.91383 207.668C8.30672 208.472 9.8472 208.989 11.4437 209.186C13.0402 209.384 14.6601 209.258 16.2071 208.817C17.7541 208.376 19.1966 207.629 20.4489 206.619C21.7013 205.609 22.7378 204.358 23.4969 202.94C41.6169 171.62 73.6169 152.94 109.107 152.94C144.597 152.94 176.597 171.63 194.717 202.94C196.362 205.585 198.971 207.487 201.993 208.243C205.015 209 208.213 208.551 210.91 206.993C213.607 205.435 215.593 202.888 216.447 199.893C217.301 196.897 216.957 193.686 215.487 190.94ZM57.1069 76.9399C57.1069 66.6553 60.1566 56.6016 65.8705 48.0503C71.5843 39.4989 79.7056 32.8339 89.2074 28.8982C98.7091 24.9624 109.165 23.9326 119.252 25.9391C129.339 27.9455 138.604 32.898 145.876 40.1704C153.149 47.4427 158.101 56.7082 160.108 66.7952C162.114 76.8822 161.084 87.3377 157.149 96.8394C153.213 106.341 146.548 114.462 137.997 120.176C129.445 125.89 119.392 128.94 109.107 128.94C95.3205 128.924 82.1033 123.44 72.3549 113.692C62.6064 103.943 57.1228 90.7263 57.1069 76.9399Z" fill="white"/>
</svg>
